<svg width="204" height="104" viewBox="0 0 204 104" fill="none" xmlns="http://www.w3.org/2000/svg">
<g id="Group 1468">
<g id="Group 1459">
<path id="Vector" d="M174.997 75V1H1V75H103.057H174.997Z" fill="white" stroke="#00B9C5" stroke-width="2" stroke-linecap="round" stroke-linejoin="round"/>
<path id="Vector_2" d="M96.7067 56.2334H79.6167V62.0153H96.7067V56.2334Z" stroke="#00B9C5" stroke-width="2" stroke-linecap="round" stroke-linejoin="round"/>
<g id="Group">
<path id="Vector_3" d="M36.8992 9.21094H19.1983C19.1983 9.21094 19.1983 20.0076 8.47266 20.0076V57.0716C8.47266 57.0716 19.1983 57.0716 19.1983 67.8683H100.756" stroke="#00B9C5" stroke-width="2" stroke-linecap="round" stroke-linejoin="round"/>
<path id="Vector_4" d="M98.7249 61.859C104.194 57.5261 107.831 49.9827 107.831 41.3879C107.831 27.9489 98.9522 17.0527 88.0134 17.0527C77.0747 17.0527 68.1958 27.9489 68.1958 41.3879C68.1958 49.9685 71.8184 57.5119 77.2736 61.8448" stroke="#00B9C5" stroke-width="2" stroke-linecap="round" stroke-linejoin="round"/>
<path id="Vector_5" d="M133.416 47.582C138.956 47.582 143.445 43.0644 143.445 37.4956C143.445 31.9267 138.956 27.4092 133.416 27.4092C127.875 27.4092 123.386 31.9267 123.386 37.4956C123.386 43.0644 127.875 47.582 133.416 47.582Z" stroke="#00B9C5" stroke-width="2" stroke-linecap="round" stroke-linejoin="round"/>
<path id="Vector_6" d="M9.42417 14.496C11.4798 14.496 13.1462 12.8169 13.1462 10.7455C13.1462 8.67424 11.4798 6.99512 9.42417 6.99512C7.36855 6.99512 5.70215 8.67424 5.70215 10.7455C5.70215 12.8169 7.36855 14.496 9.42417 14.496Z" stroke="#00B9C5" stroke-width="2" stroke-linecap="round" stroke-linejoin="round"/>
<path id="Vector_7" d="M10.0208 69.6581C12.0807 69.6581 13.7429 67.9818 13.7429 65.9077C13.7429 63.8336 12.0807 62.1572 10.0208 62.1572C7.96095 62.1572 6.29883 63.8336 6.29883 65.9077C6.29883 67.9818 7.96095 69.6581 10.0208 69.6581Z" stroke="#00B9C5" stroke-width="2" stroke-linecap="round" stroke-linejoin="round"/>
<path id="Vector_8" d="M166.147 13.8568C168.207 13.8568 169.869 12.1805 169.869 10.1064C169.869 8.03229 168.207 6.35596 166.147 6.35596C164.087 6.35596 162.425 8.03229 162.425 10.1064C162.425 12.1805 164.087 13.8568 166.147 13.8568Z" stroke="#00B9C5" stroke-width="2" stroke-linecap="round" stroke-linejoin="round"/>
<path id="Vector_9" d="M166.843 69.9848C168.903 69.9848 170.565 68.3084 170.565 66.2343C170.565 64.1602 168.903 62.4839 166.843 62.4839C164.783 62.4839 163.121 64.1602 163.121 66.2343C163.121 68.3084 164.783 69.9848 166.843 69.9848Z" stroke="#00B9C5" stroke-width="2" stroke-linecap="round" stroke-linejoin="round"/>
</g>
<path id="Vector_10" d="M43.7039 26.5288L41.9139 27.7932L40.1097 26.5288L38.8453 28.333L36.7428 27.7932L36.1462 29.9383L33.9868 30.1514L34.1431 32.3818L32.1968 33.3478L33.0776 35.3793L31.5718 36.9704L33.0776 38.5614L32.1968 40.5929L34.1431 41.5589L33.9868 43.7751L36.1462 44.0024L36.7428 46.1475L38.8453 45.5935L40.1097 47.3977L41.9139 46.1475L43.7039 47.3977L44.9824 45.5935L47.0849 46.1475L47.6816 44.0024L49.8409 43.7751L49.6847 41.5589L51.6309 40.5929L50.7501 38.5614L52.256 36.9704L50.7501 35.3793L51.6309 33.3478L49.6847 32.3818L49.8409 30.1514L47.6816 29.9383L47.0849 27.7932L44.9824 28.333L43.7039 26.5288Z" stroke="#00B9C5" stroke-width="2" stroke-linecap="round" stroke-linejoin="round"/>
<path id="Vector_11" d="M31.0605 56.3901H52.7676" stroke="#00B9C5" stroke-width="2" stroke-linecap="round" stroke-linejoin="round"/>
<path id="Vector_12" d="M66.1777 64.9985H110.387" stroke="#00B9C5" stroke-width="2" stroke-linecap="round" stroke-linejoin="round"/>
<path id="Vector_13" d="M122.562 56.8018H144.269" stroke="#00B9C5" stroke-width="2" stroke-linecap="round" stroke-linejoin="round"/>
<path id="Vector_14" d="M114.834 22.2241H151.983" stroke="#00B9C5" stroke-width="2" stroke-linecap="round" stroke-linejoin="round"/>
<g id="Group_2">
<path id="Vector_15" d="M133.416 44.2013C137.038 44.2013 139.979 41.1895 139.979 37.4817C139.979 33.7739 137.038 30.7622 133.416 30.7622C129.793 30.7622 126.853 33.7739 126.853 37.4817C126.853 41.1895 129.793 44.2013 133.416 44.2013Z" stroke="#00B9C5" stroke-width="2" stroke-linecap="round" stroke-linejoin="round"/>
<path id="Vector_16" d="M40.5785 39.9678V37.6948H41.9565C42.7947 37.6948 43.2209 38.1636 43.2209 38.8455C43.2209 39.5274 42.7379 39.9678 41.9281 39.9678H40.5785ZM40.5785 36.3026V34.1433H41.7577C42.5674 34.1433 42.9936 34.5553 42.9936 35.2087C42.9936 35.8622 42.539 36.2884 41.7719 36.2884H40.5927L40.5785 36.3026ZM38.9448 32.7369V41.36H42.2549C43.8602 41.36 44.8972 40.3514 44.8972 38.945C44.8972 37.8795 44.2153 37.1124 43.3914 36.8993C44.1017 36.6578 44.6273 35.9333 44.6273 35.0525C44.6273 33.7171 43.6897 32.7227 42.0276 32.7227H38.9448V32.7369Z" fill="#00B9C5"/>
<path id="Vector_17" d="M96.7215 57.4982C101.111 54.0319 104.024 47.98 104.024 41.09C104.024 30.3218 96.892 21.585 88.1126 21.585C79.3332 21.585 72.2017 30.3218 72.2017 41.09C72.2017 47.9658 75.0997 54.0035 79.4894 57.484" stroke="#00B9C5" stroke-width="2" stroke-linecap="round" stroke-linejoin="round"/>
<path id="Vector_18" d="M97.5594 38.6328C97.5594 38.4055 97.5594 37.9651 97.6447 37.6667C97.8294 37.0275 97.6021 35.4932 97.389 34.6266C97.1759 33.8311 96.636 32.9787 96.4229 32.6519C96.4087 32.2826 96.3235 31.4302 95.8689 30.7483C95.2722 29.8533 92.914 28.2196 89.9449 28.3333C87.2173 28.4327 84.8733 29.4271 83.68 30.9756C82.8276 32.0837 82.2736 33.3196 81.9895 33.9873C81.2792 33.9305 79.8585 34.0157 78.7505 35.3369C77.7418 36.5302 78.2817 39.613 79.7733 41.2183C80.6257 42.1417 81.6769 42.44 82.7566 42.0991C82.6856 42.6105 82.6998 43.2213 82.9981 43.7612C83.3248 44.3436 83.9073 44.713 84.7171 44.8693C84.6034 45.5796 84.1772 47.0854 82.785 50.0545C81.1797 53.464 80.8956 54.6147 80.8956 55.6376C80.8956 55.9075 81.1229 56.1348 81.3928 56.1348H93.397C93.5959 56.1348 93.7664 56.0211 93.8516 55.8506C93.9369 55.6802 93.9085 55.4813 93.7948 55.325C93.1697 54.5153 91.5218 52.157 91.4792 50.9495C91.4508 49.9977 91.8059 47.9378 92.3884 46.5172C92.502 46.4462 92.7009 46.5172 92.9566 46.6024C94.4483 47.0854 95.8405 47.469 96.4372 46.7729C96.8917 46.2473 96.9344 45.9489 96.8633 45.537C96.8633 45.4801 96.8491 45.4375 96.8349 45.3807C97.048 45.1534 97.3748 44.7698 97.4174 44.372C97.4458 44.1448 97.4032 43.9459 97.3037 43.7754C97.531 43.5339 97.6589 43.2213 97.5594 42.8662C98.1845 42.7099 98.9801 42.3264 99.0227 41.5876C99.0511 41.1899 98.7528 40.65 98.0709 39.5135C97.8578 39.1442 97.6447 38.8174 97.5452 38.5901L97.5594 38.6328Z" stroke="#00B9C5" stroke-width="2" stroke-linecap="round" stroke-linejoin="round"/>
<path id="Vector_19" d="M83.2114 49.2588C83.2114 49.2588 88.3114 49.3156 92.7864 54.1031" stroke="#00B9C5" stroke-width="2" stroke-linecap="round" stroke-linejoin="round"/>
<path id="Vector_20" d="M96.2239 33.0493C96.2239 33.0493 92.5302 33.8733 91.067 36.1463C90.4988 37.027 90.3283 38.0357 90.5698 39.1438C90.6124 39.3569 90.513 39.5842 90.3141 39.6836C90.1152 39.7973 89.8737 39.7546 89.7174 39.5984C89.3907 39.2716 88.3962 38.4619 87.6149 38.6181C87.2029 38.7034 86.862 39.0585 86.6063 39.6836C86.379 40.2376 86.1659 40.9906 86.4784 41.4594C86.8052 41.9566 87.6007 41.9708 87.6149 41.9708C87.7712 41.9708 87.9274 42.0418 88.0127 42.1697C88.1121 42.2975 88.1405 42.4538 88.0837 42.6101C88.0553 42.6953 87.4018 44.7836 84.7026 45.0535" stroke="#00B9C5" stroke-width="2" stroke-linecap="round" stroke-linejoin="round"/>
<path id="Vector_21" d="M96.366 38.3345C95.9114 38.718 95.4852 38.8317 95.0874 38.7038" stroke="#00B9C5" stroke-width="2" stroke-linecap="round" stroke-linejoin="round"/>
</g>
<path id="Vector_22" d="M113.783 67.9391V62.1572H108.143H62.9531V67.9391H105.714H113.783Z" stroke="#00B9C5" stroke-width="2" stroke-linecap="round" stroke-linejoin="round"/>
<path id="Vector_23" d="M111.069 67.8683H156.813C156.813 67.8683 156.813 57.0716 167.525 57.0716V20.0076C167.525 20.0076 156.813 20.0076 156.813 9.21094H139.439" stroke="#00B9C5" stroke-width="2" stroke-linecap="round" stroke-linejoin="round"/>
</g>
<g id="Group 1461">
<path id="Vector_24" d="M181.997 82V8H8V82H110.057H181.997Z" fill="white" stroke="#00B9C5" stroke-width="2" stroke-linecap="round" stroke-linejoin="round"/>
<path id="Vector_25" d="M103.707 63.2334H86.6167V69.0153H103.707V63.2334Z" stroke="#00B9C5" stroke-width="2" stroke-linecap="round" stroke-linejoin="round"/>
<g id="Group_3">
<path id="Vector_26" d="M43.8992 16.2109H26.1983C26.1983 16.2109 26.1983 27.0076 15.4727 27.0076V64.0716C15.4727 64.0716 26.1983 64.0716 26.1983 74.8683H107.756" stroke="#00B9C5" stroke-width="2" stroke-linecap="round" stroke-linejoin="round"/>
<path id="Vector_27" d="M105.725 68.859C111.194 64.5261 114.831 56.9827 114.831 48.3879C114.831 34.9489 105.952 24.0527 95.0134 24.0527C84.0747 24.0527 75.1958 34.9489 75.1958 48.3879C75.1958 56.9685 78.8184 64.5119 84.2736 68.8448" stroke="#00B9C5" stroke-width="2" stroke-linecap="round" stroke-linejoin="round"/>
<path id="Vector_28" d="M140.416 54.582C145.956 54.582 150.445 50.0644 150.445 44.4956C150.445 38.9267 145.956 34.4092 140.416 34.4092C134.875 34.4092 130.386 38.9267 130.386 44.4956C130.386 50.0644 134.875 54.582 140.416 54.582Z" stroke="#00B9C5" stroke-width="2" stroke-linecap="round" stroke-linejoin="round"/>
<path id="Vector_29" d="M16.4242 21.496C18.4798 21.496 20.1462 19.8169 20.1462 17.7455C20.1462 15.6742 18.4798 13.9951 16.4242 13.9951C14.3686 13.9951 12.7021 15.6742 12.7021 17.7455C12.7021 19.8169 14.3686 21.496 16.4242 21.496Z" stroke="#00B9C5" stroke-width="2" stroke-linecap="round" stroke-linejoin="round"/>
<path id="Vector_30" d="M17.0208 76.6581C19.0807 76.6581 20.7429 74.9818 20.7429 72.9077C20.7429 70.8336 19.0807 69.1572 17.0208 69.1572C14.961 69.1572 13.2988 70.8336 13.2988 72.9077C13.2988 74.9818 14.961 76.6581 17.0208 76.6581Z" stroke="#00B9C5" stroke-width="2" stroke-linecap="round" stroke-linejoin="round"/>
<path id="Vector_31" d="M173.147 20.8568C175.207 20.8568 176.869 19.1805 176.869 17.1064C176.869 15.0323 175.207 13.356 173.147 13.356C171.087 13.356 169.425 15.0323 169.425 17.1064C169.425 19.1805 171.087 20.8568 173.147 20.8568Z" stroke="#00B9C5" stroke-width="2" stroke-linecap="round" stroke-linejoin="round"/>
<path id="Vector_32" d="M173.843 76.9848C175.903 76.9848 177.565 75.3084 177.565 73.2343C177.565 71.1602 175.903 69.4839 173.843 69.4839C171.783 69.4839 170.121 71.1602 170.121 73.2343C170.121 75.3084 171.783 76.9848 173.843 76.9848Z" stroke="#00B9C5" stroke-width="2" stroke-linecap="round" stroke-linejoin="round"/>
</g>
<path id="Vector_33" d="M50.7039 33.5288L48.9139 34.7932L47.1097 33.5288L45.8453 35.333L43.7428 34.7932L43.1462 36.9383L40.9868 37.1514L41.1431 39.3818L39.1968 40.3478L40.0776 42.3793L38.5718 43.9704L40.0776 45.5614L39.1968 47.5929L41.1431 48.5589L40.9868 50.7751L43.1462 51.0024L43.7428 53.1475L45.8453 52.5935L47.1097 54.3977L48.9139 53.1475L50.7039 54.3977L51.9824 52.5935L54.0849 53.1475L54.6816 51.0024L56.8409 50.7751L56.6847 48.5589L58.6309 47.5929L57.7501 45.5614L59.256 43.9704L57.7501 42.3793L58.6309 40.3478L56.6847 39.3818L56.8409 37.1514L54.6816 36.9383L54.0849 34.7932L51.9824 35.333L50.7039 33.5288Z" stroke="#00B9C5" stroke-width="2" stroke-linecap="round" stroke-linejoin="round"/>
<path id="Vector_34" d="M38.0605 63.3901H59.7676" stroke="#00B9C5" stroke-width="2" stroke-linecap="round" stroke-linejoin="round"/>
<path id="Vector_35" d="M73.1777 71.9985H117.387" stroke="#00B9C5" stroke-width="2" stroke-linecap="round" stroke-linejoin="round"/>
<path id="Vector_36" d="M129.562 63.8018H151.269" stroke="#00B9C5" stroke-width="2" stroke-linecap="round" stroke-linejoin="round"/>
<path id="Vector_37" d="M121.834 29.2241H158.983" stroke="#00B9C5" stroke-width="2" stroke-linecap="round" stroke-linejoin="round"/>
<g id="Group_4">
<path id="Vector_38" d="M140.416 51.2013C144.038 51.2013 146.979 48.1895 146.979 44.4817C146.979 40.7739 144.038 37.7622 140.416 37.7622C136.793 37.7622 133.853 40.7739 133.853 44.4817C133.853 48.1895 136.793 51.2013 140.416 51.2013Z" stroke="#00B9C5" stroke-width="2" stroke-linecap="round" stroke-linejoin="round"/>
<path id="Vector_39" d="M47.5785 46.9678V44.6948H48.9565C49.7947 44.6948 50.2209 45.1636 50.2209 45.8455C50.2209 46.5274 49.7379 46.9678 48.9281 46.9678H47.5785ZM47.5785 43.3026V41.1433H48.7577C49.5674 41.1433 49.9936 41.5553 49.9936 42.2087C49.9936 42.8622 49.539 43.2884 48.7719 43.2884H47.5927L47.5785 43.3026ZM45.9448 39.7369V48.36H49.2549C50.8602 48.36 51.8972 47.3514 51.8972 45.945C51.8972 44.8795 51.2153 44.1124 50.3914 43.8993C51.1017 43.6578 51.6273 42.9333 51.6273 42.0525C51.6273 40.7171 50.6897 39.7227 49.0276 39.7227H45.9448V39.7369Z" fill="#00B9C5"/>
<path id="Vector_40" d="M103.722 64.4982C108.111 61.0319 111.024 54.98 111.024 48.09C111.024 37.3218 103.892 28.585 95.1126 28.585C86.3332 28.585 79.2017 37.3218 79.2017 48.09C79.2017 54.9658 82.0997 61.0035 86.4894 64.484" stroke="#00B9C5" stroke-width="2" stroke-linecap="round" stroke-linejoin="round"/>
<path id="Vector_41" d="M104.559 45.6328C104.559 45.4055 104.559 44.9651 104.645 44.6667C104.829 44.0275 104.602 42.4932 104.389 41.6266C104.176 40.8311 103.636 39.9787 103.423 39.6519C103.409 39.2826 103.323 38.4302 102.869 37.7483C102.272 36.8533 99.914 35.2196 96.9449 35.3333C94.2173 35.4327 91.8733 36.4271 90.68 37.9756C89.8276 39.0837 89.2736 40.3196 88.9895 40.9873C88.2792 40.9305 86.8585 41.0157 85.7505 42.3369C84.7418 43.5302 85.2817 46.613 86.7733 48.2183C87.6257 49.1417 88.6769 49.44 89.7566 49.0991C89.6856 49.6105 89.6998 50.2213 89.9981 50.7612C90.3248 51.3436 90.9073 51.713 91.7171 51.8693C91.6034 52.5796 91.1772 54.0854 89.785 57.0545C88.1797 60.464 87.8956 61.6147 87.8956 62.6376C87.8956 62.9075 88.1229 63.1348 88.3928 63.1348H100.397C100.596 63.1348 100.766 63.0211 100.852 62.8506C100.937 62.6802 100.908 62.4813 100.795 62.325C100.17 61.5153 98.5218 59.157 98.4792 57.9495C98.4508 56.9977 98.8059 54.9378 99.3884 53.5172C99.502 53.4462 99.7009 53.5172 99.9566 53.6024C101.448 54.0854 102.84 54.469 103.437 53.7729C103.892 53.2473 103.934 52.9489 103.863 52.537C103.863 52.4801 103.849 52.4375 103.835 52.3807C104.048 52.1534 104.375 51.7698 104.417 51.372C104.446 51.1448 104.403 50.9459 104.304 50.7754C104.531 50.5339 104.659 50.2213 104.559 49.8662C105.185 49.7099 105.98 49.3264 106.023 48.5876C106.051 48.1899 105.753 47.65 105.071 46.5135C104.858 46.1442 104.645 45.8174 104.545 45.5901L104.559 45.6328Z" stroke="#00B9C5" stroke-width="2" stroke-linecap="round" stroke-linejoin="round"/>
<path id="Vector_42" d="M90.2114 56.2588C90.2114 56.2588 95.3114 56.3156 99.7864 61.1031" stroke="#00B9C5" stroke-width="2" stroke-linecap="round" stroke-linejoin="round"/>
<path id="Vector_43" d="M103.224 40.0493C103.224 40.0493 99.5302 40.8733 98.067 43.1463C97.4988 44.027 97.3283 45.0357 97.5698 46.1438C97.6124 46.3569 97.513 46.5842 97.3141 46.6836C97.1152 46.7973 96.8737 46.7546 96.7174 46.5984C96.3907 46.2716 95.3962 45.4619 94.6149 45.6181C94.2029 45.7034 93.862 46.0585 93.6063 46.6836C93.379 47.2376 93.1659 47.9906 93.4784 48.4594C93.8052 48.9566 94.6007 48.9708 94.6149 48.9708C94.7712 48.9708 94.9274 49.0418 95.0127 49.1697C95.1121 49.2975 95.1405 49.4538 95.0837 49.6101C95.0553 49.6953 94.4018 51.7836 91.7026 52.0535" stroke="#00B9C5" stroke-width="2" stroke-linecap="round" stroke-linejoin="round"/>
<path id="Vector_44" d="M103.366 45.3345C102.911 45.718 102.485 45.8317 102.087 45.7038" stroke="#00B9C5" stroke-width="2" stroke-linecap="round" stroke-linejoin="round"/>
</g>
<path id="Vector_45" d="M120.783 74.9391V69.1572H115.143H69.9531V74.9391H112.714H120.783Z" stroke="#00B9C5" stroke-width="2" stroke-linecap="round" stroke-linejoin="round"/>
<path id="Vector_46" d="M118.069 74.8683H163.813C163.813 74.8683 163.813 64.0716 174.525 64.0716V27.0076C174.525 27.0076 163.813 27.0076 163.813 16.2109H146.439" stroke="#00B9C5" stroke-width="2" stroke-linecap="round" stroke-linejoin="round"/>
</g>
<g id="Group 1463">
<path id="Vector_47" d="M188.997 89V15H15V89H117.057H188.997Z" fill="white" stroke="#00B9C5" stroke-width="2" stroke-linecap="round" stroke-linejoin="round"/>
<path id="Vector_48" d="M110.707 70.2334H93.6167V76.0153H110.707V70.2334Z" stroke="#00B9C5" stroke-width="2" stroke-linecap="round" stroke-linejoin="round"/>
<g id="Group_5">
<path id="Vector_49" d="M50.8992 23.2109H33.1983C33.1983 23.2109 33.1983 34.0076 22.4727 34.0076V71.0716C22.4727 71.0716 33.1983 71.0716 33.1983 81.8683H114.756" stroke="#00B9C5" stroke-width="2" stroke-linecap="round" stroke-linejoin="round"/>
<path id="Vector_50" d="M112.725 75.859C118.194 71.5261 121.831 63.9827 121.831 55.3879C121.831 41.9489 112.952 31.0527 102.013 31.0527C91.0747 31.0527 82.1958 41.9489 82.1958 55.3879C82.1958 63.9685 85.8184 71.5119 91.2736 75.8448" stroke="#00B9C5" stroke-width="2" stroke-linecap="round" stroke-linejoin="round"/>
<path id="Vector_51" d="M147.416 61.582C152.956 61.582 157.445 57.0644 157.445 51.4956C157.445 45.9267 152.956 41.4092 147.416 41.4092C141.875 41.4092 137.386 45.9267 137.386 51.4956C137.386 57.0644 141.875 61.582 147.416 61.582Z" stroke="#00B9C5" stroke-width="2" stroke-linecap="round" stroke-linejoin="round"/>
<path id="Vector_52" d="M23.4242 28.496C25.4798 28.496 27.1462 26.8169 27.1462 24.7455C27.1462 22.6742 25.4798 20.9951 23.4242 20.9951C21.3686 20.9951 19.7021 22.6742 19.7021 24.7455C19.7021 26.8169 21.3686 28.496 23.4242 28.496Z" stroke="#00B9C5" stroke-width="2" stroke-linecap="round" stroke-linejoin="round"/>
<path id="Vector_53" d="M24.0208 83.6581C26.0807 83.6581 27.7429 81.9818 27.7429 79.9077C27.7429 77.8336 26.0807 76.1572 24.0208 76.1572C21.961 76.1572 20.2988 77.8336 20.2988 79.9077C20.2988 81.9818 21.961 83.6581 24.0208 83.6581Z" stroke="#00B9C5" stroke-width="2" stroke-linecap="round" stroke-linejoin="round"/>
<path id="Vector_54" d="M180.147 27.8568C182.207 27.8568 183.869 26.1805 183.869 24.1064C183.869 22.0323 182.207 20.356 180.147 20.356C178.087 20.356 176.425 22.0323 176.425 24.1064C176.425 26.1805 178.087 27.8568 180.147 27.8568Z" stroke="#00B9C5" stroke-width="2" stroke-linecap="round" stroke-linejoin="round"/>
<path id="Vector_55" d="M180.843 83.9848C182.903 83.9848 184.565 82.3084 184.565 80.2343C184.565 78.1602 182.903 76.4839 180.843 76.4839C178.783 76.4839 177.121 78.1602 177.121 80.2343C177.121 82.3084 178.783 83.9848 180.843 83.9848Z" stroke="#00B9C5" stroke-width="2" stroke-linecap="round" stroke-linejoin="round"/>
</g>
<path id="Vector_56" d="M57.7039 40.5288L55.9139 41.7932L54.1097 40.5288L52.8453 42.333L50.7428 41.7932L50.1462 43.9383L47.9868 44.1514L48.1431 46.3818L46.1968 47.3478L47.0776 49.3793L45.5718 50.9704L47.0776 52.5614L46.1968 54.5929L48.1431 55.5589L47.9868 57.7751L50.1462 58.0024L50.7428 60.1475L52.8453 59.5935L54.1097 61.3977L55.9139 60.1475L57.7039 61.3977L58.9824 59.5935L61.0849 60.1475L61.6816 58.0024L63.8409 57.7751L63.6847 55.5589L65.6309 54.5929L64.7501 52.5614L66.256 50.9704L64.7501 49.3793L65.6309 47.3478L63.6847 46.3818L63.8409 44.1514L61.6816 43.9383L61.0849 41.7932L58.9824 42.333L57.7039 40.5288Z" stroke="#00B9C5" stroke-width="2" stroke-linecap="round" stroke-linejoin="round"/>
<path id="Vector_57" d="M45.0605 70.3901H66.7676" stroke="#00B9C5" stroke-width="2" stroke-linecap="round" stroke-linejoin="round"/>
<path id="Vector_58" d="M80.1777 78.9985H124.387" stroke="#00B9C5" stroke-width="2" stroke-linecap="round" stroke-linejoin="round"/>
<path id="Vector_59" d="M136.562 70.8018H158.269" stroke="#00B9C5" stroke-width="2" stroke-linecap="round" stroke-linejoin="round"/>
<path id="Vector_60" d="M128.834 36.2241H165.983" stroke="#00B9C5" stroke-width="2" stroke-linecap="round" stroke-linejoin="round"/>
<g id="Group_6">
<path id="Vector_61" d="M147.416 58.2013C151.038 58.2013 153.979 55.1895 153.979 51.4817C153.979 47.7739 151.038 44.7622 147.416 44.7622C143.793 44.7622 140.853 47.7739 140.853 51.4817C140.853 55.1895 143.793 58.2013 147.416 58.2013Z" stroke="#00B9C5" stroke-width="2" stroke-linecap="round" stroke-linejoin="round"/>
<path id="Vector_62" d="M54.5785 53.9678V51.6948H55.9565C56.7947 51.6948 57.2209 52.1636 57.2209 52.8455C57.2209 53.5274 56.7379 53.9678 55.9281 53.9678H54.5785ZM54.5785 50.3026V48.1433H55.7577C56.5674 48.1433 56.9936 48.5553 56.9936 49.2087C56.9936 49.8622 56.539 50.2884 55.7719 50.2884H54.5927L54.5785 50.3026ZM52.9448 46.7369V55.36H56.2549C57.8602 55.36 58.8972 54.3514 58.8972 52.945C58.8972 51.8795 58.2153 51.1124 57.3914 50.8993C58.1017 50.6578 58.6273 49.9333 58.6273 49.0525C58.6273 47.7171 57.6897 46.7227 56.0276 46.7227H52.9448V46.7369Z" fill="#00B9C5"/>
<path id="Vector_63" d="M110.722 71.4982C115.111 68.0319 118.024 61.98 118.024 55.09C118.024 44.3218 110.892 35.585 102.113 35.585C93.3332 35.585 86.2017 44.3218 86.2017 55.09C86.2017 61.9658 89.0997 68.0035 93.4894 71.484" stroke="#00B9C5" stroke-width="2" stroke-linecap="round" stroke-linejoin="round"/>
<path id="Vector_64" d="M111.559 52.6328C111.559 52.4055 111.559 51.9651 111.645 51.6667C111.829 51.0275 111.602 49.4932 111.389 48.6266C111.176 47.8311 110.636 46.9787 110.423 46.6519C110.409 46.2826 110.323 45.4302 109.869 44.7483C109.272 43.8533 106.914 42.2196 103.945 42.3333C101.217 42.4327 98.8733 43.4271 97.68 44.9756C96.8276 46.0837 96.2736 47.3196 95.9895 47.9873C95.2792 47.9305 93.8585 48.0157 92.7505 49.3369C91.7418 50.5302 92.2817 53.613 93.7733 55.2183C94.6257 56.1417 95.6769 56.44 96.7566 56.0991C96.6856 56.6105 96.6998 57.2213 96.9981 57.7612C97.3248 58.3436 97.9073 58.713 98.7171 58.8693C98.6034 59.5796 98.1772 61.0854 96.785 64.0545C95.1797 67.464 94.8956 68.6147 94.8956 69.6376C94.8956 69.9075 95.1229 70.1348 95.3928 70.1348H107.397C107.596 70.1348 107.766 70.0211 107.852 69.8506C107.937 69.6802 107.908 69.4813 107.795 69.325C107.17 68.5153 105.522 66.157 105.479 64.9495C105.451 63.9977 105.806 61.9378 106.388 60.5172C106.502 60.4462 106.701 60.5172 106.957 60.6024C108.448 61.0854 109.84 61.469 110.437 60.7729C110.892 60.2473 110.934 59.9489 110.863 59.537C110.863 59.4801 110.849 59.4375 110.835 59.3807C111.048 59.1534 111.375 58.7698 111.417 58.372C111.446 58.1448 111.403 57.9459 111.304 57.7754C111.531 57.5339 111.659 57.2213 111.559 56.8662C112.185 56.7099 112.98 56.3264 113.023 55.5876C113.051 55.1899 112.753 54.65 112.071 53.5135C111.858 53.1442 111.645 52.8174 111.545 52.5901L111.559 52.6328Z" stroke="#00B9C5" stroke-width="2" stroke-linecap="round" stroke-linejoin="round"/>
<path id="Vector_65" d="M97.2114 63.2588C97.2114 63.2588 102.311 63.3156 106.786 68.1031" stroke="#00B9C5" stroke-width="2" stroke-linecap="round" stroke-linejoin="round"/>
<path id="Vector_66" d="M110.224 47.0493C110.224 47.0493 106.53 47.8733 105.067 50.1463C104.499 51.027 104.328 52.0357 104.57 53.1438C104.612 53.3569 104.513 53.5842 104.314 53.6836C104.115 53.7973 103.874 53.7546 103.717 53.5984C103.391 53.2716 102.396 52.4619 101.615 52.6181C101.203 52.7034 100.862 53.0585 100.606 53.6836C100.379 54.2376 100.166 54.9906 100.478 55.4594C100.805 55.9566 101.601 55.9708 101.615 55.9708C101.771 55.9708 101.927 56.0418 102.013 56.1697C102.112 56.2975 102.141 56.4538 102.084 56.6101C102.055 56.6953 101.402 58.7836 98.7026 59.0535" stroke="#00B9C5" stroke-width="2" stroke-linecap="round" stroke-linejoin="round"/>
<path id="Vector_67" d="M110.366 52.3345C109.911 52.718 109.485 52.8317 109.087 52.7038" stroke="#00B9C5" stroke-width="2" stroke-linecap="round" stroke-linejoin="round"/>
</g>
<path id="Vector_68" d="M127.783 81.9391V76.1572H122.143H76.9531V81.9391H119.714H127.783Z" stroke="#00B9C5" stroke-width="2" stroke-linecap="round" stroke-linejoin="round"/>
<path id="Vector_69" d="M125.069 81.8683H170.813C170.813 81.8683 170.813 71.0716 181.525 71.0716V34.0076C181.525 34.0076 170.813 34.0076 170.813 23.2109H153.439" stroke="#00B9C5" stroke-width="2" stroke-linecap="round" stroke-linejoin="round"/>
</g>
<g id="Group 1465">
<path id="Vector_70" d="M195.997 96V22H22V96H124.057H195.997Z" fill="white" stroke="#00B9C5" stroke-width="2" stroke-linecap="round" stroke-linejoin="round"/>
<path id="Vector_71" d="M117.707 77.2334H100.617V83.0153H117.707V77.2334Z" stroke="#00B9C5" stroke-width="2" stroke-linecap="round" stroke-linejoin="round"/>
<g id="Group_7">
<path id="Vector_72" d="M57.8992 30.2109H40.1983C40.1983 30.2109 40.1983 41.0076 29.4727 41.0076V78.0716C29.4727 78.0716 40.1983 78.0716 40.1983 88.8683H121.756" stroke="#00B9C5" stroke-width="2" stroke-linecap="round" stroke-linejoin="round"/>
<path id="Vector_73" d="M119.725 82.859C125.194 78.5261 128.831 70.9827 128.831 62.3879C128.831 48.9489 119.952 38.0527 109.013 38.0527C98.0747 38.0527 89.1958 48.9489 89.1958 62.3879C89.1958 70.9685 92.8184 78.5119 98.2736 82.8448" stroke="#00B9C5" stroke-width="2" stroke-linecap="round" stroke-linejoin="round"/>
<path id="Vector_74" d="M154.416 68.582C159.956 68.582 164.445 64.0644 164.445 58.4956C164.445 52.9267 159.956 48.4092 154.416 48.4092C148.875 48.4092 144.386 52.9267 144.386 58.4956C144.386 64.0644 148.875 68.582 154.416 68.582Z" stroke="#00B9C5" stroke-width="2" stroke-linecap="round" stroke-linejoin="round"/>
<path id="Vector_75" d="M30.4242 35.496C32.4798 35.496 34.1462 33.8169 34.1462 31.7455C34.1462 29.6742 32.4798 27.9951 30.4242 27.9951C28.3686 27.9951 26.7021 29.6742 26.7021 31.7455C26.7021 33.8169 28.3686 35.496 30.4242 35.496Z" stroke="#00B9C5" stroke-width="2" stroke-linecap="round" stroke-linejoin="round"/>
<path id="Vector_76" d="M31.0208 90.6581C33.0807 90.6581 34.7429 88.9818 34.7429 86.9077C34.7429 84.8336 33.0807 83.1572 31.0208 83.1572C28.961 83.1572 27.2988 84.8336 27.2988 86.9077C27.2988 88.9818 28.961 90.6581 31.0208 90.6581Z" stroke="#00B9C5" stroke-width="2" stroke-linecap="round" stroke-linejoin="round"/>
<path id="Vector_77" d="M187.147 34.8568C189.207 34.8568 190.869 33.1805 190.869 31.1064C190.869 29.0323 189.207 27.356 187.147 27.356C185.087 27.356 183.425 29.0323 183.425 31.1064C183.425 33.1805 185.087 34.8568 187.147 34.8568Z" stroke="#00B9C5" stroke-width="2" stroke-linecap="round" stroke-linejoin="round"/>
<path id="Vector_78" d="M187.843 90.9848C189.903 90.9848 191.565 89.3084 191.565 87.2343C191.565 85.1602 189.903 83.4839 187.843 83.4839C185.783 83.4839 184.121 85.1602 184.121 87.2343C184.121 89.3084 185.783 90.9848 187.843 90.9848Z" stroke="#00B9C5" stroke-width="2" stroke-linecap="round" stroke-linejoin="round"/>
</g>
<path id="Vector_79" d="M64.7039 47.5288L62.9139 48.7932L61.1097 47.5288L59.8453 49.333L57.7428 48.7932L57.1462 50.9383L54.9868 51.1514L55.1431 53.3818L53.1968 54.3478L54.0776 56.3793L52.5718 57.9704L54.0776 59.5614L53.1968 61.5929L55.1431 62.5589L54.9868 64.7751L57.1462 65.0024L57.7428 67.1475L59.8453 66.5935L61.1097 68.3977L62.9139 67.1475L64.7039 68.3977L65.9824 66.5935L68.0849 67.1475L68.6816 65.0024L70.8409 64.7751L70.6847 62.5589L72.6309 61.5929L71.7501 59.5614L73.256 57.9704L71.7501 56.3793L72.6309 54.3478L70.6847 53.3818L70.8409 51.1514L68.6816 50.9383L68.0849 48.7932L65.9824 49.333L64.7039 47.5288Z" stroke="#00B9C5" stroke-width="2" stroke-linecap="round" stroke-linejoin="round"/>
<path id="Vector_80" d="M52.0605 77.3901H73.7676" stroke="#00B9C5" stroke-width="2" stroke-linecap="round" stroke-linejoin="round"/>
<path id="Vector_81" d="M87.1777 85.9985H131.387" stroke="#00B9C5" stroke-width="2" stroke-linecap="round" stroke-linejoin="round"/>
<path id="Vector_82" d="M143.562 77.8018H165.269" stroke="#00B9C5" stroke-width="2" stroke-linecap="round" stroke-linejoin="round"/>
<path id="Vector_83" d="M135.834 43.2241H172.983" stroke="#00B9C5" stroke-width="2" stroke-linecap="round" stroke-linejoin="round"/>
<g id="Group_8">
<path id="Vector_84" d="M154.416 65.2013C158.038 65.2013 160.979 62.1895 160.979 58.4817C160.979 54.7739 158.038 51.7622 154.416 51.7622C150.793 51.7622 147.853 54.7739 147.853 58.4817C147.853 62.1895 150.793 65.2013 154.416 65.2013Z" stroke="#00B9C5" stroke-width="2" stroke-linecap="round" stroke-linejoin="round"/>
<path id="Vector_85" d="M61.5785 60.9678V58.6948H62.9565C63.7947 58.6948 64.2209 59.1636 64.2209 59.8455C64.2209 60.5274 63.7379 60.9678 62.9281 60.9678H61.5785ZM61.5785 57.3026V55.1433H62.7577C63.5674 55.1433 63.9936 55.5553 63.9936 56.2087C63.9936 56.8622 63.539 57.2884 62.7719 57.2884H61.5927L61.5785 57.3026ZM59.9448 53.7369V62.36H63.2549C64.8602 62.36 65.8972 61.3514 65.8972 59.945C65.8972 58.8795 65.2153 58.1124 64.3914 57.8993C65.1017 57.6578 65.6273 56.9333 65.6273 56.0525C65.6273 54.7171 64.6897 53.7227 63.0276 53.7227H59.9448V53.7369Z" fill="#00B9C5"/>
<path id="Vector_86" d="M117.722 78.4982C122.111 75.0319 125.024 68.98 125.024 62.09C125.024 51.3218 117.892 42.585 109.113 42.585C100.333 42.585 93.2017 51.3218 93.2017 62.09C93.2017 68.9658 96.0997 75.0035 100.489 78.484" stroke="#00B9C5" stroke-width="2" stroke-linecap="round" stroke-linejoin="round"/>
<path id="Vector_87" d="M118.559 59.6328C118.559 59.4055 118.559 58.9651 118.645 58.6667C118.829 58.0275 118.602 56.4932 118.389 55.6266C118.176 54.8311 117.636 53.9787 117.423 53.6519C117.409 53.2826 117.323 52.4302 116.869 51.7483C116.272 50.8533 113.914 49.2196 110.945 49.3333C108.217 49.4327 105.873 50.4271 104.68 51.9756C103.828 53.0837 103.274 54.3196 102.989 54.9873C102.279 54.9305 100.859 55.0157 99.7505 56.3369C98.7418 57.5302 99.2817 60.613 100.773 62.2183C101.626 63.1417 102.677 63.44 103.757 63.0991C103.686 63.6105 103.7 64.2213 103.998 64.7612C104.325 65.3436 104.907 65.713 105.717 65.8693C105.603 66.5796 105.177 68.0854 103.785 71.0545C102.18 74.464 101.896 75.6147 101.896 76.6376C101.896 76.9075 102.123 77.1348 102.393 77.1348H114.397C114.596 77.1348 114.766 77.0211 114.852 76.8506C114.937 76.6802 114.908 76.4813 114.795 76.325C114.17 75.5153 112.522 73.157 112.479 71.9495C112.451 70.9977 112.806 68.9378 113.388 67.5172C113.502 67.4462 113.701 67.5172 113.957 67.6024C115.448 68.0854 116.84 68.469 117.437 67.7729C117.892 67.2473 117.934 66.9489 117.863 66.537C117.863 66.4801 117.849 66.4375 117.835 66.3807C118.048 66.1534 118.375 65.7698 118.417 65.372C118.446 65.1448 118.403 64.9459 118.304 64.7754C118.531 64.5339 118.659 64.2213 118.559 63.8662C119.185 63.7099 119.98 63.3264 120.023 62.5876C120.051 62.1899 119.753 61.65 119.071 60.5135C118.858 60.1442 118.645 59.8174 118.545 59.5901L118.559 59.6328Z" stroke="#00B9C5" stroke-width="2" stroke-linecap="round" stroke-linejoin="round"/>
<path id="Vector_88" d="M104.211 70.2588C104.211 70.2588 109.311 70.3156 113.786 75.1031" stroke="#00B9C5" stroke-width="2" stroke-linecap="round" stroke-linejoin="round"/>
<path id="Vector_89" d="M117.224 54.0493C117.224 54.0493 113.53 54.8733 112.067 57.1463C111.499 58.027 111.328 59.0357 111.57 60.1438C111.612 60.3569 111.513 60.5842 111.314 60.6836C111.115 60.7973 110.874 60.7546 110.717 60.5984C110.391 60.2716 109.396 59.4619 108.615 59.6181C108.203 59.7034 107.862 60.0585 107.606 60.6836C107.379 61.2376 107.166 61.9906 107.478 62.4594C107.805 62.9566 108.601 62.9708 108.615 62.9708C108.771 62.9708 108.927 63.0418 109.013 63.1697C109.112 63.2975 109.141 63.4538 109.084 63.6101C109.055 63.6953 108.402 65.7836 105.703 66.0535" stroke="#00B9C5" stroke-width="2" stroke-linecap="round" stroke-linejoin="round"/>
<path id="Vector_90" d="M117.366 59.3345C116.911 59.718 116.485 59.8317 116.087 59.7038" stroke="#00B9C5" stroke-width="2" stroke-linecap="round" stroke-linejoin="round"/>
</g>
<path id="Vector_91" d="M134.783 88.9391V83.1572H129.143H83.9531V88.9391H126.714H134.783Z" stroke="#00B9C5" stroke-width="2" stroke-linecap="round" stroke-linejoin="round"/>
<path id="Vector_92" d="M132.069 88.8683H177.813C177.813 88.8683 177.813 78.0716 188.525 78.0716V41.0076C188.525 41.0076 177.813 41.0076 177.813 30.2109H160.439" stroke="#00B9C5" stroke-width="2" stroke-linecap="round" stroke-linejoin="round"/>
</g>
<g id="Group 1467">
<path id="Vector_93" d="M202.997 103V29H29V103H131.057H202.997Z" fill="white" stroke="#00B9C5" stroke-width="2" stroke-linecap="round" stroke-linejoin="round"/>
<path id="Vector_94" d="M167.041 34.5117H64.9414V42.0126H167.041V34.5117Z" stroke="#00B9C5" stroke-width="2" stroke-linecap="round" stroke-linejoin="round"/>
<path id="Vector_95" d="M124.707 84.2334H107.617V90.0153H124.707V84.2334Z" stroke="#00B9C5" stroke-width="2" stroke-linecap="round" stroke-linejoin="round"/>
<g id="Group_9">
<path id="Vector_96" d="M64.8992 37.2109H47.1983C47.1983 37.2109 47.1983 48.0076 36.4727 48.0076V85.0716C36.4727 85.0716 47.1983 85.0716 47.1983 95.8683H128.756" stroke="#00B9C5" stroke-width="2" stroke-linecap="round" stroke-linejoin="round"/>
<path id="Vector_97" d="M126.725 89.859C132.194 85.5261 135.831 77.9827 135.831 69.3879C135.831 55.9489 126.952 45.0527 116.013 45.0527C105.075 45.0527 96.1958 55.9489 96.1958 69.3879C96.1958 77.9685 99.8184 85.5119 105.274 89.8448" stroke="#00B9C5" stroke-width="2" stroke-linecap="round" stroke-linejoin="round"/>
<path id="Vector_98" d="M161.416 75.582C166.956 75.582 171.445 71.0644 171.445 65.4956C171.445 59.9267 166.956 55.4092 161.416 55.4092C155.875 55.4092 151.386 59.9267 151.386 65.4956C151.386 71.0644 155.875 75.582 161.416 75.582Z" stroke="#00B9C5" stroke-width="2" stroke-linecap="round" stroke-linejoin="round"/>
<path id="Vector_99" d="M37.4242 42.496C39.4798 42.496 41.1462 40.8169 41.1462 38.7455C41.1462 36.6742 39.4798 34.9951 37.4242 34.9951C35.3686 34.9951 33.7021 36.6742 33.7021 38.7455C33.7021 40.8169 35.3686 42.496 37.4242 42.496Z" stroke="#00B9C5" stroke-width="2" stroke-linecap="round" stroke-linejoin="round"/>
<path id="Vector_100" d="M38.0208 97.6581C40.0807 97.6581 41.7429 95.9818 41.7429 93.9077C41.7429 91.8336 40.0807 90.1572 38.0208 90.1572C35.961 90.1572 34.2988 91.8336 34.2988 93.9077C34.2988 95.9818 35.961 97.6581 38.0208 97.6581Z" stroke="#00B9C5" stroke-width="2" stroke-linecap="round" stroke-linejoin="round"/>
<path id="Vector_101" d="M194.147 41.8568C196.207 41.8568 197.869 40.1805 197.869 38.1064C197.869 36.0323 196.207 34.356 194.147 34.356C192.087 34.356 190.425 36.0323 190.425 38.1064C190.425 40.1805 192.087 41.8568 194.147 41.8568Z" stroke="#00B9C5" stroke-width="2" stroke-linecap="round" stroke-linejoin="round"/>
<path id="Vector_102" d="M194.843 97.9848C196.903 97.9848 198.565 96.3084 198.565 94.2343C198.565 92.1602 196.903 90.4839 194.843 90.4839C192.783 90.4839 191.121 92.1602 191.121 94.2343C191.121 96.3084 192.783 97.9848 194.843 97.9848Z" stroke="#00B9C5" stroke-width="2" stroke-linecap="round" stroke-linejoin="round"/>
</g>
<path id="Vector_103" d="M71.7039 54.5288L69.9139 55.7932L68.1097 54.5288L66.8453 56.333L64.7428 55.7932L64.1462 57.9383L61.9868 58.1514L62.1431 60.3818L60.1968 61.3478L61.0776 63.3793L59.5718 64.9704L61.0776 66.5614L60.1968 68.5929L62.1431 69.5589L61.9868 71.7751L64.1462 72.0024L64.7428 74.1475L66.8453 73.5935L68.1097 75.3977L69.9139 74.1475L71.7039 75.3977L72.9824 73.5935L75.0849 74.1475L75.6816 72.0024L77.8409 71.7751L77.6847 69.5589L79.6309 68.5929L78.7501 66.5614L80.256 64.9704L78.7501 63.3793L79.6309 61.3478L77.6847 60.3818L77.8409 58.1514L75.6816 57.9383L75.0849 55.7932L72.9824 56.333L71.7039 54.5288Z" stroke="#00B9C5" stroke-width="2" stroke-linecap="round" stroke-linejoin="round"/>
<path id="Vector_104" d="M59.0605 84.3901H80.7676" stroke="#00B9C5" stroke-width="2" stroke-linecap="round" stroke-linejoin="round"/>
<path id="Vector_105" d="M94.1777 92.9985H138.387" stroke="#00B9C5" stroke-width="2" stroke-linecap="round" stroke-linejoin="round"/>
<path id="Vector_106" d="M150.562 84.8018H172.269" stroke="#00B9C5" stroke-width="2" stroke-linecap="round" stroke-linejoin="round"/>
<path id="Vector_107" d="M142.834 50.2241H179.983" stroke="#00B9C5" stroke-width="2" stroke-linecap="round" stroke-linejoin="round"/>
<g id="Group_10">
<path id="Vector_108" d="M161.416 72.2013C165.038 72.2013 167.979 69.1895 167.979 65.4817C167.979 61.7739 165.038 58.7622 161.416 58.7622C157.793 58.7622 154.853 61.7739 154.853 65.4817C154.853 69.1895 157.793 72.2013 161.416 72.2013Z" stroke="#00B9C5" stroke-width="2" stroke-linecap="round" stroke-linejoin="round"/>
<path id="Vector_109" d="M68.5785 67.9678V65.6948H69.9565C70.7947 65.6948 71.2209 66.1636 71.2209 66.8455C71.2209 67.5274 70.7379 67.9678 69.9281 67.9678H68.5785ZM68.5785 64.3026V62.1433H69.7577C70.5674 62.1433 70.9936 62.5553 70.9936 63.2087C70.9936 63.8622 70.539 64.2884 69.7719 64.2884H68.5927L68.5785 64.3026ZM66.9448 60.7369V69.36H70.2549C71.8602 69.36 72.8972 68.3514 72.8972 66.945C72.8972 65.8795 72.2153 65.1124 71.3914 64.8993C72.1017 64.6578 72.6273 63.9333 72.6273 63.0525C72.6273 61.7171 71.6897 60.7227 70.0276 60.7227H66.9448V60.7369Z" fill="#00B9C5"/>
<path id="Vector_110" d="M124.722 85.4982C129.111 82.0319 132.024 75.98 132.024 69.09C132.024 58.3218 124.892 49.585 116.113 49.585C107.333 49.585 100.202 58.3218 100.202 69.09C100.202 75.9658 103.1 82.0035 107.489 85.484" stroke="#00B9C5" stroke-width="2" stroke-linecap="round" stroke-linejoin="round"/>
<path id="Vector_111" d="M125.559 66.6328C125.559 66.4055 125.559 65.9651 125.645 65.6667C125.829 65.0275 125.602 63.4932 125.389 62.6266C125.176 61.8311 124.636 60.9787 124.423 60.6519C124.409 60.2826 124.323 59.4302 123.869 58.7483C123.272 57.8533 120.914 56.2196 117.945 56.3333C115.217 56.4327 112.873 57.4271 111.68 58.9756C110.828 60.0837 110.274 61.3196 109.989 61.9873C109.279 61.9305 107.859 62.0157 106.75 63.3369C105.742 64.5302 106.282 67.613 107.773 69.2183C108.626 70.1417 109.677 70.44 110.757 70.0991C110.686 70.6105 110.7 71.2213 110.998 71.7612C111.325 72.3436 111.907 72.713 112.717 72.8693C112.603 73.5796 112.177 75.0854 110.785 78.0545C109.18 81.464 108.896 82.6147 108.896 83.6376C108.896 83.9075 109.123 84.1348 109.393 84.1348H121.397C121.596 84.1348 121.766 84.0211 121.852 83.8506C121.937 83.6802 121.908 83.4813 121.795 83.325C121.17 82.5153 119.522 80.157 119.479 78.9495C119.451 77.9977 119.806 75.9378 120.388 74.5172C120.502 74.4462 120.701 74.5172 120.957 74.6024C122.448 75.0854 123.84 75.469 124.437 74.7729C124.892 74.2473 124.934 73.9489 124.863 73.537C124.863 73.4801 124.849 73.4375 124.835 73.3807C125.048 73.1534 125.375 72.7698 125.417 72.372C125.446 72.1448 125.403 71.9459 125.304 71.7754C125.531 71.5339 125.659 71.2213 125.559 70.8662C126.185 70.7099 126.98 70.3264 127.023 69.5876C127.051 69.1899 126.753 68.65 126.071 67.5135C125.858 67.1442 125.645 66.8174 125.545 66.5901L125.559 66.6328Z" stroke="#00B9C5" stroke-width="2" stroke-linecap="round" stroke-linejoin="round"/>
<path id="Vector_112" d="M111.211 77.2588C111.211 77.2588 116.311 77.3156 120.786 82.1031" stroke="#00B9C5" stroke-width="2" stroke-linecap="round" stroke-linejoin="round"/>
<path id="Vector_113" d="M124.224 61.0493C124.224 61.0493 120.53 61.8733 119.067 64.1463C118.499 65.027 118.328 66.0357 118.57 67.1438C118.612 67.3569 118.513 67.5842 118.314 67.6836C118.115 67.7973 117.874 67.7546 117.717 67.5984C117.391 67.2716 116.396 66.4619 115.615 66.6181C115.203 66.7034 114.862 67.0585 114.606 67.6836C114.379 68.2376 114.166 68.9906 114.478 69.4594C114.805 69.9566 115.601 69.9708 115.615 69.9708C115.771 69.9708 115.927 70.0418 116.013 70.1697C116.112 70.2975 116.141 70.4538 116.084 70.6101C116.055 70.6953 115.402 72.7836 112.703 73.0535" stroke="#00B9C5" stroke-width="2" stroke-linecap="round" stroke-linejoin="round"/>
<path id="Vector_114" d="M124.366 66.3345C123.911 66.718 123.485 66.8317 123.087 66.7038" stroke="#00B9C5" stroke-width="2" stroke-linecap="round" stroke-linejoin="round"/>
</g>
<path id="Vector_115" d="M141.783 95.9391V90.1572H136.143H90.9531V95.9391H133.714H141.783Z" stroke="#00B9C5" stroke-width="2" stroke-linecap="round" stroke-linejoin="round"/>
<path id="Vector_116" d="M139.069 95.8683H184.813C184.813 95.8683 184.813 85.0716 195.525 85.0716V48.0076C195.525 48.0076 184.813 48.0076 184.813 37.2109H167.439" stroke="#00B9C5" stroke-width="2" stroke-linecap="round" stroke-linejoin="round"/>
</g>
</g>
</svg>
