<svg width="163" height="179" viewBox="0 0 163 179" fill="none" xmlns="http://www.w3.org/2000/svg">
<g id="Group 1470">
<g id="Group">
<path id="Vector" d="M65.9828 103.857C65.3901 109.076 63.7931 114.46 60.0394 117.143C53.355 121.918 15.2248 129.788 8.98497 146.284C7.6514 149.791 5.32999 157.035 1 176.578" stroke="#00B9C5" stroke-width="2" stroke-linecap="round" stroke-linejoin="round"/>
<path id="Vector_2" d="M97.0339 103.857C97.6266 109.076 99.2236 114.46 102.977 117.143C109.662 121.918 147.792 129.788 154.032 146.284C155.365 149.791 157.67 157.019 162 176.545" stroke="#00B9C5" stroke-width="2" stroke-linecap="round" stroke-linejoin="round"/>
<path id="Vector_3" d="M53.7336 78.0581C55.0178 95.0488 66.098 108.45 82.1832 108.45" stroke="#00B9C5" stroke-width="2" stroke-linecap="round" stroke-linejoin="round"/>
</g>
<path id="Vector_4" d="M53.6842 78.1559L52.7952 62.4658" stroke="#00B9C5" stroke-width="2" stroke-linecap="round" stroke-linejoin="round"/>
<g id="Group_2">
<path id="Vector_5" d="M112.987 62.9273C118.848 59.5357 115.901 52.3904 115.901 52.3904C118.98 50.9581 120.774 48.1592 121.219 44.6524C123.837 42.1005 125.335 38.3961 125.022 34.4119L125.088 34.4448C124.874 31.7777 123.886 29.3575 122.355 27.4312C123.228 25.7684 123.656 23.8586 123.491 21.8335C123.046 16.2523 118.305 12.0869 112.872 12.5314C111.785 12.6302 110.781 12.943 109.842 13.3382C109.579 13.1735 109.299 12.9924 109.019 12.8443C108.213 7.67461 103.701 3.90439 98.5318 4.33245C98.1202 4.36537 97.758 4.46416 97.3793 4.54648C94.9262 2.12629 91.5017 0.743326 87.8303 1.03968C83.5497 1.38542 79.977 3.93731 78.0178 7.4935C75.8116 5.4026 72.8811 4.13488 69.6377 4.13488C64.929 4.13488 60.846 6.83495 58.7386 10.8192C57.3227 10.243 55.8081 9.93015 54.1946 9.93015C47.3456 9.93015 41.7973 15.6431 41.7973 22.6732C41.7973 24.7476 42.2748 26.6904 43.1309 28.4191C39.9863 30.724 37.9119 34.5107 37.9119 38.8077C37.9119 45.3604 42.423 51.6331 48.5969 52.3246C48.5969 52.3246 46.2261 58.8772 49.9799 62.8285" stroke="#00B9C5" stroke-width="2" stroke-linecap="round" stroke-linejoin="round"/>
<path id="Vector_6" d="M109.941 78.0576C108.657 95.0483 97.5769 108.45 81.4917 108.45" stroke="#00B9C5" stroke-width="2" stroke-linecap="round" stroke-linejoin="round"/>
</g>
<path id="Vector_7" d="M109.925 78.4855L110.863 62.7954" stroke="#00B9C5" stroke-width="2" stroke-linecap="round" stroke-linejoin="round"/>
<g id="Group_3">
<path id="Vector_8" d="M87.6327 90.6851C87.6327 90.6851 82.5783 93.6486 76.9971 90.6851" stroke="#00B9C5" stroke-width="2" stroke-linecap="round" stroke-linejoin="round"/>
<path id="Vector_9" d="M71.6299 65.0681C71.6299 66.3028 70.6256 67.3236 69.3908 67.3236C68.156 67.3236 67.1353 66.3193 67.1353 65.0681C67.1353 63.8168 68.1396 62.8125 69.3908 62.8125C70.6421 62.8125 71.6299 63.8168 71.6299 65.0681Z" fill="#00B9C5"/>
<path id="Vector_10" d="M97.3135 65.0681C97.3135 66.3028 96.3092 67.3236 95.0744 67.3236C93.8396 67.3236 92.8188 66.3193 92.8188 65.0681C92.8188 63.8168 93.8231 62.8125 95.0744 62.8125C96.3256 62.8125 97.3135 63.8168 97.3135 65.0681Z" fill="#00B9C5"/>
<path id="Vector_11" d="M76.1082 76.082C75.499 76.5759 75.1204 77.3333 75.1204 78.1729C75.1204 79.6382 76.2728 80.8401 77.6887 80.8401C78.5778 80.8401 79.3516 80.3791 79.8126 79.6712" stroke="#00B9C5" stroke-width="2" stroke-linecap="round" stroke-linejoin="round"/>
<path id="Vector_12" d="M79.9771 79.457C80.1088 79.7205 80.2734 79.9674 80.4874 80.1814C81.5246 81.2351 83.171 81.2681 84.1918 80.2802C84.4223 80.0497 84.6034 79.7863 84.7351 79.5064" stroke="#00B9C5" stroke-width="2" stroke-linecap="round" stroke-linejoin="round"/>
<path id="Vector_13" d="M84.8008 79.6876C85.2618 80.3956 86.0356 80.8566 86.9246 80.8566C88.3405 80.8566 89.493 79.6711 89.493 78.1894C89.493 77.3333 89.1143 76.5759 88.5051 76.082" stroke="#00B9C5" stroke-width="2" stroke-linecap="round" stroke-linejoin="round"/>
<path id="Vector_14" d="M52.7952 62.4664C52.7952 62.4664 56.7959 50.6618 56.7959 37.7212C56.7959 37.7212 67.6785 39.417 81.7715 39.417" stroke="#00B9C5" stroke-width="2" stroke-linecap="round" stroke-linejoin="round"/>
<path id="Vector_15" d="M110.863 62.7956C110.863 62.7956 106.813 50.6618 106.813 37.7212C106.813 37.7212 95.9302 39.417 81.8372 39.417" stroke="#00B9C5" stroke-width="2" stroke-linecap="round" stroke-linejoin="round"/>
</g>
<g id="Group_4">
<path id="Vector_16" d="M46.9666 65.0841C46.9666 65.0841 52.5479 64.4255 53.4369 73.9581M52.3174 62.7627C51.7741 62.8286 44.0031 62.4334 45.3696 71.044C46.1764 76.8228 50.0783 78.9467 53.3875 79.6052" stroke="#00B9C5" stroke-width="2" stroke-linecap="round" stroke-linejoin="round"/>
<path id="Vector_17" d="M49.6008 66.2695C49.6008 66.2695 47.1148 70.2209 50.3088 74.1228" stroke="#00B9C5" stroke-width="2" stroke-linecap="round" stroke-linejoin="round"/>
<path id="Vector_18" d="M116.428 64.9354C116.428 64.9354 111.061 64.5568 110.172 74.0893M111.192 62.8774C111.736 62.9433 119.029 62.4329 117.646 71.06C116.839 76.8388 113.349 78.8803 110.04 79.5389" stroke="#00B9C5" stroke-width="2" stroke-linecap="round" stroke-linejoin="round"/>
<path id="Vector_19" d="M113.415 66.2695C113.415 66.2695 115.901 70.2209 112.707 74.1228" stroke="#00B9C5" stroke-width="2" stroke-linecap="round" stroke-linejoin="round"/>
</g>
<g id="Group_5">
<path id="Vector_20" d="M63.1343 124.468C63.1343 124.468 71.0699 132.322 81.3268 132.322" stroke="#00B9C5" stroke-width="2" stroke-linecap="round" stroke-linejoin="round"/>
<path id="Vector_21" d="M99.8324 124.468C99.8324 124.468 91.8969 132.322 81.6399 132.322" stroke="#00B9C5" stroke-width="2" stroke-linecap="round" stroke-linejoin="round"/>
<path id="Vector_22" d="M64 130C64 130 71.4099 137 81 137" stroke="#00B9C5" stroke-width="2" stroke-linecap="round" stroke-linejoin="round"/>
<path id="Vector_23" d="M99 130C99 130 91.5901 137 82 137" stroke="#00B9C5" stroke-width="2" stroke-linecap="round" stroke-linejoin="round"/>
<path id="Vector_24" d="M61.6855 116.27C61.6855 116.27 68.7979 153.181 68.7979 177.103" stroke="#00B9C5" stroke-width="2" stroke-linecap="round" stroke-linejoin="round"/>
<path id="Vector_25" d="M101.331 115.743C101.331 115.743 94.2183 152.655 94.2183 176.577" stroke="#00B9C5" stroke-width="2" stroke-linecap="round" stroke-linejoin="round"/>
</g>
<path id="Vector_26" d="M91.7486 87.0469C91.7486 87.0469 85.3442 88.2817 81.5081 88.2817C77.672 88.2817 71.2676 87.0469 71.2676 87.0469" stroke="#00B9C5" stroke-width="2" stroke-linecap="round" stroke-linejoin="round"/>
<g id="Group_6">
<path id="Vector_27" d="M62.5745 58.9267C62.5745 58.9267 69.0942 56.3748 74.2309 58.9267" stroke="#00B9C5" stroke-width="2" stroke-linecap="round" stroke-linejoin="round"/>
<path id="Vector_28" d="M100.441 58.9267C100.441 58.9267 93.9216 56.3748 88.7849 58.9267" stroke="#00B9C5" stroke-width="2" stroke-linecap="round" stroke-linejoin="round"/>
</g>
</g>
</svg>
