<svg width="183" height="178" viewBox="0 0 183 178" fill="none" xmlns="http://www.w3.org/2000/svg">
<g id="Group 1471">
<path id="Vector" d="M81.996 39.5962H78.3374V121.431H81.996V39.5962Z" fill="white"/>
<path id="Vector_2" d="M81.996 39.5962H78.3374V121.431H81.996V39.5962Z" stroke="#00B9C5" stroke-width="2" stroke-linecap="round" stroke-linejoin="round"/>
<g id="Group">
<path id="Vector_3" d="M90.0945 46.5376V43.2983L85.2357 34.4338L83.5293 31.3247V20.5079C83.5293 12.3229 80.1743 1 80.1743 1C80.1743 1 76.8194 12.3229 76.8194 20.5079V31.3247L70.2686 43.2983V46.5376L76.7615 38.4828L76.8194 38.4105V39.3071H76.9784V41.4473H83.3702V39.3071H83.5293V38.4105L83.6016 38.4828L85.2357 40.5218L90.0945 46.5521V46.5376Z" fill="white"/>
<path id="Vector_4" d="M90.0945 46.5376V43.2983L85.2357 34.4338L83.5293 31.3247V20.5079C83.5293 12.3229 80.1743 1 80.1743 1C80.1743 1 76.8194 12.3229 76.8194 20.5079V31.3247L70.2686 43.2983V46.5376L76.7615 38.4828L76.8194 38.4105V39.3071H76.9784V41.4473H83.3702V39.3071H83.5293V38.4105L83.6016 38.4828L85.2357 40.5218L90.0945 46.5521V46.5376Z" stroke="#00B9C5" stroke-width="2" stroke-linecap="round" stroke-linejoin="round"/>
<path id="Vector_5" d="M16.5893 162.211C15.0854 161.661 13.8706 160.562 13.191 159.102C12.5113 157.641 12.439 156.007 12.9885 154.503C13.538 152.999 14.6371 151.785 16.0976 151.119C17.5582 150.454 19.1778 150.367 20.6962 150.917C22.2002 151.466 23.4149 152.565 24.0945 154.026C24.7742 155.487 24.8465 157.106 24.297 158.625C23.7475 160.129 22.6484 161.343 21.1879 162.008C19.7273 162.674 18.1077 162.76 16.5893 162.211Z" fill="white"/>
<path id="Vector_6" d="M16.5893 162.211C15.0854 161.661 13.8706 160.562 13.191 159.102C12.5113 157.641 12.439 156.007 12.9885 154.503C13.538 152.999 14.6371 151.785 16.0976 151.119C17.5582 150.454 19.1778 150.367 20.6962 150.917C22.2002 151.466 23.4149 152.565 24.0945 154.026C24.7742 155.487 24.8465 157.106 24.297 158.625C23.7475 160.129 22.6484 161.343 21.1879 162.008C19.7273 162.674 18.1077 162.76 16.5893 162.211Z" stroke="#00B9C5" stroke-width="2" stroke-linecap="round" stroke-linejoin="round"/>
<path id="Vector_7" d="M80.1596 163.599C78.6557 163.05 77.441 161.951 76.7613 160.49C76.0816 159.03 76.0093 157.396 76.5588 155.892C77.1083 154.388 78.2074 153.173 79.6679 152.508C81.1285 151.828 82.7481 151.756 84.2665 152.305C85.7705 152.855 86.9852 153.954 87.6649 155.415C88.3445 156.875 88.4168 158.495 87.8673 160.013C87.3178 161.532 86.2188 162.732 84.7582 163.411C83.2976 164.091 81.6636 164.163 80.1596 163.614" fill="white"/>
<path id="Vector_8" d="M80.1596 163.599C78.6557 163.05 77.441 161.951 76.7613 160.49C76.0816 159.03 76.0093 157.396 76.5588 155.892C77.1083 154.388 78.2074 153.173 79.6679 152.508C81.1285 151.828 82.7481 151.756 84.2665 152.305C85.7705 152.855 86.9852 153.954 87.6649 155.415C88.3445 156.875 88.4168 158.495 87.8673 160.013C87.3178 161.532 86.2188 162.732 84.7582 163.411C83.2976 164.091 81.6636 164.163 80.1596 163.614V163.599Z" stroke="#00B9C5" stroke-width="2" stroke-linecap="round" stroke-linejoin="round"/>
<path id="Vector_9" d="M106.016 158.075C107.52 157.525 108.735 156.426 109.415 154.966C110.094 153.505 110.167 151.886 109.617 150.367C109.067 148.863 107.968 147.649 106.508 146.983C105.047 146.304 103.428 146.231 101.909 146.781C100.405 147.331 99.1906 148.43 98.5254 149.89C97.8458 151.351 97.7735 152.97 98.323 154.489C98.8725 155.993 99.9715 157.207 101.432 157.887C102.893 158.567 104.512 158.639 106.031 158.089" fill="white"/>
<path id="Vector_10" d="M106.016 158.075C107.52 157.525 108.735 156.426 109.415 154.966C110.094 153.505 110.167 151.886 109.617 150.367C109.067 148.863 107.968 147.649 106.508 146.983C105.047 146.304 103.428 146.231 101.909 146.781C100.405 147.331 99.1906 148.43 98.5254 149.89C97.8458 151.351 97.7735 152.97 98.323 154.489C98.8725 155.993 99.9715 157.207 101.432 157.887C102.893 158.567 104.512 158.639 106.031 158.089L106.016 158.075Z" stroke="#00B9C5" stroke-width="2" stroke-linecap="round" stroke-linejoin="round"/>
<path id="Vector_11" d="M134.649 151.756C136.153 151.207 137.368 150.108 138.047 148.647C138.727 147.187 138.799 145.552 138.25 144.048C137.7 142.545 136.601 141.33 135.141 140.665C133.68 139.985 132.061 139.913 130.542 140.462C129.038 141.012 127.823 142.111 127.158 143.571C126.479 145.032 126.406 146.651 126.956 148.17C127.505 149.674 128.604 150.889 130.065 151.554C131.525 152.233 133.145 152.306 134.663 151.756" fill="white"/>
<path id="Vector_12" d="M134.649 151.756C136.153 151.207 137.368 150.108 138.047 148.647C138.727 147.187 138.799 145.552 138.25 144.048C137.7 142.545 136.601 141.33 135.141 140.665C133.68 139.985 132.061 139.913 130.542 140.462C129.038 141.012 127.823 142.111 127.158 143.571C126.479 145.032 126.406 146.651 126.956 148.17C127.505 149.674 128.604 150.889 130.065 151.554C131.525 152.233 133.145 152.306 134.663 151.756H134.649Z" stroke="#00B9C5" stroke-width="2" stroke-linecap="round" stroke-linejoin="round"/>
<path id="Vector_13" d="M71.0785 153.129C72.5825 152.58 73.7972 151.481 74.4769 150.02C75.1565 148.56 75.2288 146.94 74.6793 145.422C74.1298 143.918 73.0308 142.703 71.5702 142.038C70.1097 141.358 68.49 141.286 66.9716 141.835C65.4677 142.385 64.253 143.484 63.5733 144.944C62.8936 146.405 62.8213 148.024 63.3708 149.543C63.9204 151.047 65.0194 152.262 66.48 152.927C67.9405 153.606 69.5746 153.679 71.0785 153.129Z" fill="white"/>
<path id="Vector_14" d="M71.0785 153.129C72.5825 152.58 73.7972 151.481 74.4769 150.02C75.1565 148.56 75.2288 146.94 74.6793 145.422C74.1298 143.918 73.0308 142.703 71.5702 142.038C70.1097 141.358 68.49 141.286 66.9716 141.835C65.4677 142.385 64.253 143.484 63.5733 144.944C62.8936 146.405 62.8213 148.024 63.3708 149.543C63.9204 151.047 65.0194 152.262 66.48 152.927C67.9405 153.606 69.5746 153.679 71.0785 153.129Z" stroke="#00B9C5" stroke-width="2" stroke-linecap="round" stroke-linejoin="round"/>
<path id="Vector_15" d="M87.1302 117.425C87.405 117.483 87.6942 117.526 87.9834 117.541C89.2415 117.584 90.4418 117.15 91.3673 116.297C92.2928 115.444 92.8279 114.287 92.8713 113.029C92.9146 111.771 92.4808 110.571 91.6276 109.645C91.5408 109.544 91.4252 109.472 91.3239 109.37C91.3384 109.37 91.3528 109.356 91.3673 109.341C93.0303 107.809 93.9847 105.712 94.0715 103.456C94.1583 101.2 93.3629 99.0307 91.8301 97.3822C90.2972 95.7192 88.2004 94.7647 85.9444 94.6635C84.8743 94.6201 83.8331 94.7937 82.8498 95.1407L82.0255 90.8169H75.2723L73.8117 98.4234C73.0308 97.7871 72.0764 97.3966 71.0496 97.3677C69.806 97.3243 68.6057 97.7582 67.6802 98.6114C66.7547 99.4646 66.2341 100.621 66.1763 101.865C66.1329 103.109 66.5668 104.309 67.4199 105.22C68.0128 105.871 68.7793 106.305 69.6036 106.536C68.8082 107.534 68.331 108.748 68.2731 110.05C68.2153 111.67 68.7793 113.202 69.8783 114.388C70.1097 114.634 70.3555 114.837 70.6158 115.039" fill="white"/>
<path id="Vector_16" d="M87.1302 117.425C87.405 117.483 87.6942 117.526 87.9834 117.541C89.2415 117.584 90.4418 117.15 91.3673 116.297C92.2928 115.444 92.8279 114.287 92.8713 113.029C92.9146 111.771 92.4808 110.571 91.6276 109.645C91.5408 109.544 91.4252 109.472 91.3239 109.37C91.3384 109.37 91.3528 109.356 91.3673 109.341C93.0303 107.809 93.9847 105.712 94.0715 103.456C94.1583 101.2 93.3629 99.0307 91.8301 97.3822C90.2972 95.7192 88.2004 94.7647 85.9444 94.6635C84.8743 94.6201 83.8331 94.7937 82.8498 95.1407L82.0255 90.8169H75.2723L73.8117 98.4234C73.0308 97.7871 72.0764 97.3966 71.0496 97.3677C69.806 97.3243 68.6057 97.7582 67.6802 98.6114C66.7547 99.4646 66.2341 100.621 66.1763 101.865C66.1329 103.109 66.5668 104.309 67.4199 105.22C68.0128 105.871 68.7793 106.305 69.6036 106.536C68.8082 107.534 68.331 108.748 68.2731 110.05C68.2153 111.67 68.7793 113.202 69.8783 114.388C70.1097 114.634 70.3555 114.837 70.6158 115.039" stroke="#00B9C5" stroke-width="2" stroke-linecap="round" stroke-linejoin="round"/>
<path id="Vector_17" d="M71.671 97.9461C71.5698 100.419 72.4375 102.79 74.086 104.613C75.749 106.435 77.9905 107.49 80.4344 107.592C82.8783 107.693 85.1921 106.811 86.9852 105.133C88.7784 103.456 89.8051 101.156 89.9063 98.6836C90.0076 96.2108 89.1399 93.8392 87.4913 92.0171C85.8428 90.195 83.5869 89.1393 81.143 89.0381C78.7135 88.9369 76.3853 89.819 74.5922 91.4965C72.799 93.174 71.7578 95.4733 71.671 97.9461Z" fill="white"/>
<path id="Vector_18" d="M71.671 97.9461C71.5698 100.419 72.4375 102.79 74.086 104.613C75.749 106.435 77.9905 107.49 80.4344 107.592C82.8783 107.693 85.1921 106.811 86.9852 105.133C88.7784 103.456 89.8051 101.156 89.9063 98.6836C90.0076 96.2108 89.1399 93.8392 87.4913 92.0171C85.8428 90.195 83.5869 89.1393 81.143 89.0381C78.7135 88.9369 76.3853 89.819 74.5922 91.4965C72.799 93.174 71.7578 95.4733 71.671 97.9461Z" stroke="#00B9C5" stroke-width="2" stroke-linecap="round" stroke-linejoin="round"/>
<path id="Vector_19" d="M88.0701 113.275C88.1569 111.062 87.376 108.937 85.8576 107.303C84.3537 105.669 82.3002 104.729 80.0732 104.642C77.8462 104.555 75.7349 105.336 74.1008 106.84C72.7993 108.04 71.9606 109.602 71.6135 111.323C70.9773 111.005 70.2831 110.802 69.5601 110.773C68.2441 110.715 66.9716 111.193 66.0027 112.089C65.0338 112.986 64.4698 114.215 64.412 115.531C64.3686 116.847 64.8313 118.119 65.7279 119.088C66.6245 120.057 67.8537 120.621 69.1696 120.679C70.4856 120.737 71.7581 120.26 72.727 119.363C73.0307 119.088 73.2765 118.756 73.4935 118.423C73.5513 118.481 73.5802 118.553 73.6381 118.611C75.142 120.245 77.1955 121.185 79.4225 121.272C81.635 121.359 83.7608 120.578 85.3948 119.074C87.0289 117.57 87.9689 115.516 88.0557 113.289" fill="white"/>
<path id="Vector_20" d="M88.0701 113.275C88.1569 111.062 87.376 108.937 85.8576 107.303C84.3537 105.669 82.3002 104.729 80.0732 104.642C77.8462 104.555 75.7349 105.336 74.1008 106.84C72.7993 108.04 71.9606 109.602 71.6135 111.323C70.9773 111.005 70.2831 110.802 69.5601 110.773C68.2441 110.715 66.9716 111.193 66.0027 112.089C65.0338 112.986 64.4698 114.215 64.412 115.531C64.3686 116.847 64.8313 118.119 65.7279 119.088C66.6245 120.057 67.8537 120.621 69.1696 120.679C70.4856 120.737 71.7581 120.26 72.727 119.363C73.0307 119.088 73.2765 118.756 73.4935 118.423C73.5513 118.481 73.5802 118.553 73.6381 118.611C75.142 120.245 77.1955 121.185 79.4225 121.272C81.635 121.359 83.7608 120.578 85.3948 119.074C87.0289 117.57 87.9689 115.516 88.0557 113.289L88.0701 113.275Z" stroke="#00B9C5" stroke-width="2" stroke-linecap="round" stroke-linejoin="round"/>
<path id="Vector_21" d="M70.9625 166.767C71.8302 166.289 72.6544 165.725 73.3919 165.046C75.8792 162.746 77.3109 159.623 77.4555 156.239C77.4555 156.196 77.4555 156.152 77.4555 156.123C78.3231 156.268 79.2197 156.384 80.1163 156.413C82.8783 156.528 85.5826 156.08 88.1132 155.154C88.4024 155.632 88.735 156.094 89.14 156.514C90.6439 158.148 92.6973 159.088 94.9243 159.175C95.792 159.204 96.6452 159.073 97.455 158.842C96.356 160.331 95.7052 162.11 95.6329 163.99C95.5317 166.463 96.4138 168.835 98.0913 170.657C99.7688 172.479 102.068 173.534 104.541 173.636C107.014 173.737 109.385 172.855 111.207 171.177C112.104 170.353 112.813 169.37 113.319 168.299C113.767 168.56 114.172 168.863 114.649 169.08C118.452 170.859 122.733 171.047 126.681 169.601C130.628 168.169 133.781 165.277 135.56 161.459C137.338 157.656 137.526 153.376 136.08 149.428C134.649 145.48 131.756 142.328 127.953 140.549C124.15 138.77 119.87 138.582 115.922 140.028C111.974 141.46 108.821 144.352 107.043 148.17C106.001 150.382 105.539 152.754 105.582 155.126C105.481 155.126 105.38 155.082 105.278 155.082C104.179 155.039 103.124 155.212 102.111 155.545C102.994 154.272 103.5 152.768 103.572 151.192C103.659 148.965 102.878 146.854 101.374 145.22C100.926 144.743 100.434 144.338 99.9134 143.991C100.926 141.677 101.519 139.175 101.62 136.572C101.837 131.062 99.8844 125.784 96.1391 121.735C92.3937 117.686 87.2889 115.329 81.7793 115.112C76.2697 114.895 70.9914 116.847 66.9424 120.593C62.8933 124.338 60.5361 129.443 60.3192 134.952C60.3192 135.068 60.3192 135.169 60.3192 135.285C59.466 135.647 58.6707 136.138 57.9766 136.789C56.3425 138.293 55.4025 140.346 55.3157 142.573C55.2579 143.976 55.5905 145.321 56.1834 146.536C53.7539 148.821 52.3223 151.915 52.1922 155.256C52.1632 155.993 52.2211 156.716 52.3223 157.425C51.7873 157.569 51.2811 157.786 50.7605 157.989C50.3412 157.7 49.8929 157.439 49.3867 157.251C47.8828 156.702 46.2487 156.774 44.7881 157.454C44.47 157.598 44.1808 157.786 43.8916 157.989C42.0695 154.518 39.105 151.857 35.403 150.512C31.4551 149.081 27.1891 149.254 23.3714 151.033C19.5682 152.812 16.676 155.964 15.2444 159.912C13.8127 163.86 14.0007 168.14 15.765 171.944C16.4013 173.317 17.2255 174.561 18.1944 175.675" fill="white"/>
<path id="Vector_22" d="M70.9625 166.767C71.8302 166.289 72.6544 165.725 73.3919 165.046C75.8792 162.746 77.3109 159.623 77.4555 156.239C77.4555 156.196 77.4555 156.152 77.4555 156.123C78.3231 156.268 79.2197 156.384 80.1163 156.413C82.8783 156.528 85.5825 156.08 88.1132 155.154C88.4024 155.632 88.735 156.094 89.14 156.514C90.6439 158.148 92.6973 159.088 94.9243 159.175C95.792 159.204 96.6452 159.073 97.455 158.842C96.356 160.331 95.7052 162.11 95.6329 163.99C95.5317 166.463 96.4138 168.835 98.0913 170.657C99.7688 172.479 102.068 173.534 104.541 173.636C107.014 173.737 109.385 172.855 111.207 171.177C112.104 170.353 112.813 169.37 113.319 168.299C113.767 168.56 114.172 168.863 114.649 169.08C118.452 170.859 122.733 171.047 126.681 169.601C130.628 168.169 133.781 165.277 135.56 161.459C137.338 157.656 137.526 153.376 136.08 149.428C134.649 145.48 131.756 142.328 127.953 140.549C124.15 138.77 119.87 138.582 115.922 140.028C111.974 141.46 108.821 144.352 107.043 148.17C106.001 150.382 105.539 152.754 105.582 155.126C105.481 155.126 105.38 155.082 105.278 155.082C104.179 155.039 103.124 155.212 102.111 155.545C102.994 154.272 103.5 152.768 103.572 151.192C103.659 148.965 102.878 146.854 101.374 145.22C100.926 144.743 100.434 144.338 99.9134 143.991C100.926 141.677 101.519 139.175 101.62 136.572C101.837 131.062 99.8844 125.784 96.1391 121.735C92.3937 117.686 87.2889 115.329 81.7793 115.112C76.2697 114.895 70.9914 116.847 66.9424 120.593C62.8933 124.338 60.5361 129.443 60.3192 134.952C60.3192 135.068 60.3192 135.169 60.3192 135.285C59.466 135.647 58.6707 136.138 57.9765 136.789C56.3425 138.293 55.4025 140.346 55.3157 142.573C55.2579 143.976 55.5905 145.321 56.1834 146.536C53.7539 148.821 52.3223 151.915 52.1922 155.256C52.1632 155.993 52.2211 156.716 52.3223 157.425C51.7873 157.569 51.2811 157.786 50.7605 157.989C50.3412 157.7 49.8929 157.439 49.3867 157.251C47.8828 156.702 46.2487 156.774 44.7881 157.454C44.47 157.598 44.1808 157.786 43.8916 157.989C42.0695 154.518 39.105 151.857 35.403 150.512C31.4551 149.081 27.1891 149.254 23.3714 151.033C19.5682 152.812 16.676 155.964 15.2444 159.912C13.8127 163.86 14.0007 168.14 15.765 171.944C16.4013 173.317 17.2255 174.561 18.1944 175.675" stroke="#00B9C5" stroke-width="2" stroke-linecap="round" stroke-linejoin="round"/>
<path id="Vector_23" d="M177.005 175.906C175.284 172.681 172.58 170.107 169.21 168.53C165.089 166.607 160.476 166.405 156.21 167.966C155.632 168.183 155.097 168.444 154.547 168.704C151.366 163.888 146.941 159.998 141.576 157.497C133.94 153.939 125.365 153.563 117.455 156.441C116.934 156.629 116.442 156.86 115.936 157.077C116.92 155.747 117.469 154.171 117.541 152.493C117.628 150.266 116.847 148.155 115.343 146.521C113.839 144.887 111.786 143.947 109.559 143.86C107.332 143.773 105.221 144.554 103.587 146.058C101.952 147.562 101.013 149.616 100.926 151.842C100.839 154.069 101.62 156.181 103.124 157.815C104.628 159.449 106.681 160.389 108.908 160.476C109.255 160.476 109.602 160.447 109.935 160.418C107.766 161.965 105.799 163.773 104.093 165.826C103.601 162.037 101.967 158.495 99.3206 155.631C95.9367 151.973 91.3237 149.847 86.3491 149.659C81.3745 149.456 76.6024 151.221 72.9438 154.605C69.2851 157.988 67.1594 162.587 66.9714 167.576C66.8557 170.41 67.3763 173.172 68.4753 175.703" fill="white"/>
<path id="Vector_24" d="M177.005 175.906C175.284 172.681 172.58 170.107 169.21 168.53C165.089 166.607 160.476 166.405 156.21 167.966C155.632 168.183 155.097 168.444 154.547 168.704C151.366 163.888 146.941 159.998 141.576 157.497C133.94 153.939 125.365 153.563 117.455 156.441C116.934 156.629 116.442 156.86 115.936 157.077C116.92 155.747 117.469 154.171 117.541 152.493C117.628 150.266 116.847 148.155 115.343 146.521C113.839 144.887 111.786 143.947 109.559 143.86C107.332 143.773 105.221 144.554 103.587 146.058C101.952 147.562 101.013 149.616 100.926 151.842C100.839 154.069 101.62 156.181 103.124 157.815C104.628 159.449 106.681 160.389 108.908 160.476C109.255 160.476 109.602 160.447 109.935 160.418C107.766 161.965 105.799 163.773 104.093 165.826C103.601 162.037 101.967 158.495 99.3206 155.631C95.9367 151.973 91.3237 149.847 86.3491 149.659C81.3745 149.456 76.6024 151.221 72.9438 154.605C69.2851 157.988 67.1594 162.587 66.9714 167.576C66.8557 170.41 67.3763 173.172 68.4753 175.703" stroke="#00B9C5" stroke-width="2" stroke-linecap="round" stroke-linejoin="round"/>
<path id="Vector_25" d="M81.4177 175.963C81.5478 175.298 81.6346 174.633 81.6635 173.953C81.7937 170.569 80.6079 167.344 78.3086 164.857C76.0093 162.37 72.8857 160.938 69.5019 160.793C66.118 160.663 62.8932 161.849 60.4059 164.148C57.9186 166.448 56.487 169.571 56.3424 172.955C56.299 173.909 56.3713 174.835 56.5448 175.746" fill="white"/>
<path id="Vector_26" d="M81.4177 175.963C81.5479 175.298 81.6346 174.633 81.6635 173.953C81.7937 170.569 80.6079 167.344 78.3086 164.857C76.0093 162.37 72.8857 160.938 69.5019 160.793C66.118 160.663 62.8932 161.849 60.4059 164.148C57.9186 166.448 56.487 169.571 56.3424 172.955C56.299 173.909 56.3713 174.835 56.5448 175.746" stroke="#00B9C5" stroke-width="2" stroke-linecap="round" stroke-linejoin="round"/>
<path id="Vector_27" d="M103.124 163.628C103.066 165.233 103.63 166.766 104.7 167.937C105.784 169.123 107.26 169.803 108.85 169.861C110.441 169.919 111.959 169.355 113.131 168.27C114.302 167.185 114.982 165.696 115.04 164.091C115.097 162.486 114.533 160.953 113.463 159.781C112.379 158.61 110.904 157.916 109.313 157.858C107.722 157.8 106.204 158.364 105.033 159.449C103.861 160.533 103.182 162.023 103.124 163.628Z" fill="white"/>
<path id="Vector_28" d="M103.124 163.628C103.066 165.233 103.63 166.766 104.7 167.937C105.784 169.123 107.26 169.803 108.85 169.861C110.441 169.919 111.959 169.355 113.131 168.27C114.302 167.185 114.982 165.696 115.04 164.091C115.097 162.486 114.533 160.953 113.463 159.781C112.379 158.61 110.904 157.916 109.313 157.858C107.722 157.8 106.204 158.364 105.033 159.449C103.861 160.533 103.182 162.023 103.124 163.628Z" stroke="#00B9C5" stroke-width="2" stroke-linecap="round" stroke-linejoin="round"/>
<path id="Vector_29" d="M59.929 144.815C62.156 147.548 65.3085 149.24 68.8081 149.601C72.3076 149.963 75.7349 148.936 78.468 146.709C81.2011 144.482 82.8931 141.33 83.2546 137.83C83.6161 134.33 82.5894 130.903 80.3624 128.17C78.1354 125.437 74.9829 123.745 71.4834 123.384C67.9838 123.022 64.5566 124.049 61.8234 126.276C59.0903 128.503 57.3984 131.655 57.0369 135.155C56.6753 138.654 57.7021 142.082 59.929 144.815Z" fill="white"/>
<path id="Vector_30" d="M59.929 144.815C62.156 147.548 65.3085 149.24 68.8081 149.601C72.3076 149.963 75.7349 148.936 78.468 146.709C81.2011 144.482 82.8931 141.33 83.2546 137.83C83.6161 134.33 82.5894 130.903 80.3624 128.17C78.1354 125.437 74.9829 123.745 71.4834 123.384C67.9838 123.022 64.5566 124.049 61.8234 126.276C59.0903 128.503 57.3984 131.655 57.0369 135.155C56.6753 138.654 57.7021 142.082 59.929 144.815Z" stroke="#00B9C5" stroke-width="2" stroke-linecap="round" stroke-linejoin="round"/>
</g>
<path id="Vector_31" d="M76.8911 38.4106H83.4564" stroke="#00B9C5" stroke-width="2" stroke-linecap="round" stroke-linejoin="round"/>
<g id="Group_2">
<path id="Vector_32" d="M80.1739 19.5099C80.9403 19.5099 81.5622 18.8881 81.5622 18.1217C81.5622 17.3552 80.9403 16.7334 80.1739 16.7334C79.4075 16.7334 78.7856 17.3552 78.7856 18.1217C78.7856 18.8881 79.4075 19.5099 80.1739 19.5099Z" fill="white"/>
<path id="Vector_33" d="M80.1739 19.5099C80.9406 19.5099 81.5622 18.8884 81.5622 18.1217C81.5622 17.3549 80.9406 16.7334 80.1739 16.7334C79.4072 16.7334 78.7856 17.3549 78.7856 18.1217C78.7856 18.8884 79.4072 19.5099 80.1739 19.5099Z" stroke="#00B9C5" stroke-width="2" stroke-linecap="round" stroke-linejoin="round"/>
<path id="Vector_34" d="M164.048 175.689C163.353 175.211 162.63 174.792 161.85 174.43C158.321 172.782 154.373 172.623 150.715 173.939C149.456 174.402 148.285 175.023 147.229 175.79" fill="white"/>
<path id="Vector_35" d="M164.048 175.689C163.353 175.211 162.63 174.792 161.85 174.43C158.321 172.782 154.373 172.623 150.715 173.939C149.456 174.402 148.285 175.023 147.229 175.79" stroke="#00B9C5" stroke-width="2" stroke-linecap="round" stroke-linejoin="round"/>
<path id="Vector_36" d="M145.219 175.862C144.25 173.302 142.79 170.931 140.881 168.863C136.933 164.597 131.554 162.11 125.755 161.893C119.941 161.661 114.388 163.715 110.122 167.663C107.577 170.02 105.668 172.883 104.497 176.05" fill="white"/>
<path id="Vector_37" d="M145.219 175.862C144.25 173.302 142.79 170.931 140.881 168.863C136.933 164.597 131.554 162.11 125.755 161.893C119.941 161.661 114.388 163.715 110.122 167.663C107.577 170.02 105.668 172.883 104.497 176.05" stroke="#00B9C5" stroke-width="2" stroke-linecap="round" stroke-linejoin="round"/>
<path id="Vector_38" d="M1 175.92H181.126" stroke="#00B9C5" stroke-width="2" stroke-linecap="round" stroke-linejoin="round"/>
</g>
</g>
</svg>
