<svg width="98" height="179" viewBox="0 0 98 179" fill="none" xmlns="http://www.w3.org/2000/svg">
<g id="Group 1454">
<g id="Group">
<path id="Vector" d="M2.21883 21.9308H60.4067M32.7046 11.3977H32.6896M43.0572 11.3977H40.6797M95.2411 161.133H2.21883M96.46 51.905V166.55C96.46 172.644 91.4191 177.595 85.2196 177.595H12.2403C6.02579 177.595 1 172.644 1 166.55V12.0447C1 5.95056 6.04084 1 12.2403 1H43.0421" stroke="#00B9C5" stroke-width="2"/>
<path id="Vector_2" d="M95.2411 21.9308H54.4178M42.2596 11.4127H61.9866M96.4449 166.565V12.0447C96.4449 5.95056 91.404 1 85.2045 1H37.0532" stroke="#00B9C5" stroke-width="2"/>
<path id="Vector_3" d="M45.5547 95.196L26.9713 110.875C26.8058 111.011 26.6403 111.146 26.4898 111.297C24.4885 113.298 24.4885 116.563 26.4898 118.564C28.4911 120.566 31.7563 120.566 33.7576 118.564C33.9382 118.384 34.1037 118.188 34.2391 117.993L48.8651 100.237M52.4765 95.8581L58.691 88.3043L56.4188 86.0322L48.9554 92.337M75.3784 72.595L59.955 88.0184M72.4743 69.6908L57.0508 85.1143M78.3578 75.4239L64.4842 89.2975C63.3255 90.4561 61.4145 90.4561 60.2559 89.2975L55.7718 84.8134C54.6132 83.6547 54.6132 81.7437 55.7718 80.5851L69.6454 66.7115M19.5079 62.8895C17.5216 69.2996 22.8935 80.6302 29.4541 87.2059C31.0341 88.7858 32.7194 90.125 34.4649 91.2385C34.9614 91.5545 35.6085 91.5395 36.105 91.2385C37.2486 90.5313 38.5126 90.0197 39.8518 89.7188C40.9201 89.478 42.0186 89.8993 42.6355 90.8022L60.6772 118.158C60.7976 118.324 60.933 118.474 61.0835 118.625C63.145 120.686 66.5607 120.566 68.4717 118.294C70.142 116.292 69.8561 113.373 68.0805 111.462C67.93 111.312 67.8096 111.146 67.6441 111.026L19.5079 62.8594V62.8895Z" stroke="#00B9C5" stroke-width="2"/>
</g>
<path id="Vector_4" d="M21.3887 42.0942H76.0705" stroke="#00B9C5" stroke-width="2"/>
<path id="Vector_5" d="M26.4453 140.834H71.0154" stroke="#00B9C5" stroke-width="2"/>
<path id="Vector_6" d="M26.4453 148.027H71.0154" stroke="#00B9C5" stroke-width="2"/>
</g>
</svg>
